<?xml version="1.0" encoding="UTF-8" standalone="no"?>
<!DOCTYPE svg PUBLIC "-//W3C//DTD SVG 1.1//EN" "http://www.w3.org/Graphics/SVG/1.1/DTD/svg11.dtd">
<svg width="100%" height="100%" viewBox="0 0 236 30" version="1.1" xmlns="http://www.w3.org/2000/svg" xmlns:xlink="http://www.w3.org/1999/xlink" xml:space="preserve" style="fill-rule:evenodd;clip-rule:evenodd;stroke-linejoin:round;stroke-miterlimit:1.41421;">
    <g transform="matrix(1.59172,0,0,1.59172,-1068.82,-78.1905)">
        <path d="M762.474,59.082L774.57,59.082C778.026,59.082 780.954,59.898 782.346,62.154C784.602,59.562 787.674,59.322 790.746,59.13C791.946,59.082 793.482,59.082 794.634,59.082L817.434,58.89L817.434,58.218L794.634,58.026C793.482,58.026 791.946,58.026 790.746,57.93C787.674,57.738 784.602,57.546 782.346,55.002C780.954,57.21 778.026,58.074 774.57,58.074L762.474,58.074L760.122,55.866L757.77,58.074L747.69,58.074L745.338,55.866L742.938,58.074L732.906,58.074L730.506,55.866L728.106,58.074L715.77,58.074C712.362,58.074 709.434,57.21 708.042,55.002C705.786,57.546 702.666,57.738 699.642,57.93C698.442,58.026 696.906,58.026 695.754,58.026L672.954,58.218L672.954,58.89L695.754,59.082C696.906,59.082 698.442,59.082 699.642,59.13C702.666,59.322 705.786,59.562 708.042,62.154C709.434,59.898 712.362,59.082 715.77,59.082L728.106,59.082L730.506,61.242L732.906,59.082L742.938,59.082L745.338,61.242L747.69,59.082L757.77,59.082L760.122,61.242L762.474,59.082Z" style="fill:rgb(84,84,84);fill-rule:nonzero;"/>
    </g>
</svg>
